C:\Users\israe\Dropbox\PhDWork\Simulation\code\PassiveMoments\Data\TrialHip_r_kneBen15ank0_kneBen60ank0_rajagopalModel.mot
nRows=100
nColumns=4

name C:\Users\israe\Dropbox\PhDWork\Simulation\code\PassiveMoments\Data\TrialHip_r_kneBen15ank0_kneBen60ank0_rajagopalModel.mot
datacolumns 4
datarows 100
range 0.000000 1.990000
endheader
time	hip_flexion_r	knee_angle_r	ankle_angle_r
        0.0000000000	      -15.0000000000	       15.0000000000	       -0.0000000000	
        0.0202040816	      -13.9387755102	       15.0000000000	        0.0000000000	
        0.0404081633	      -12.8775510204	       15.0000000000	        0.0000000000	
        0.0606122449	      -11.8163265306	       15.0000000000	        0.0000000000	
        0.0808163265	      -10.7551020408	       15.0000000000	        0.0000000000	
        0.1010204082	       -9.6938775510	       15.0000000000	        0.0000000000	
        0.1212244898	       -8.6326530612	       15.0000000000	       -0.0000000000	
        0.1414285714	       -7.5714285714	       15.0000000000	       -0.0000000000	
        0.1616326531	       -6.5102040816	       15.0000000000	       -0.0000000000	
        0.1818367347	       -5.4489795918	       15.0000000000	       -0.0000000000	
        0.2020408163	       -4.3877551020	       15.0000000000	        0.0000000000	
        0.2222448980	       -3.3265306122	       15.0000000000	        0.0000000000	
        0.2424489796	       -2.2653061224	       15.0000000000	        0.0000000000	
        0.2626530612	       -1.2040816327	       15.0000000000	        0.0000000000	
        0.2828571429	       -0.1428571429	       15.0000000000	        0.0000000000	
        0.3030612245	        0.9183673469	       15.0000000000	        0.0000000000	
        0.3232653061	        1.9795918367	       15.0000000000	        0.0000000000	
        0.3434693878	        3.0408163265	       15.0000000000	        0.0000000000	
        0.3636734694	        4.1020408163	       15.0000000000	        0.0000000000	
        0.3838775510	        5.1632653061	       15.0000000000	       -0.0000000000	
        0.4040816327	        6.2244897959	       15.0000000000	       -0.0000000000	
        0.4242857143	        7.2857142857	       15.0000000000	        0.0000000000	
        0.4444897959	        8.3469387755	       15.0000000000	        0.0000000000	
        0.4646938776	        9.4081632653	       15.0000000000	       -0.0000000000	
        0.4848979592	       10.4693877551	       15.0000000000	       -0.0000000000	
        0.5051020408	       11.5306122449	       15.0000000000	       -0.0000000000	
        0.5253061224	       12.5918367347	       15.0000000000	       -0.0000000000	
        0.5455102041	       13.6530612245	       15.0000000000	       -0.0000000000	
        0.5657142857	       14.7142857143	       15.0000000000	       -0.0000000000	
        0.5859183673	       15.7755102041	       15.0000000000	       -0.0000000000	
        0.6061224490	       16.8367346939	       15.0000000000	       -0.0000000000	
        0.6263265306	       17.8979591837	       15.0000000000	        0.0000000000	
        0.6465306122	       18.9591836735	       15.0000000000	        0.0000000000	
        0.6667346939	       20.0204081633	       15.0000000000	        0.0000000000	
        0.6869387755	       21.0816326531	       15.0000000000	       -0.0000000000	
        0.7071428571	       22.1428571429	       15.0000000000	       -0.0000000000	
        0.7273469388	       23.2040816327	       15.0000000000	       -0.0000000000	
        0.7475510204	       24.2653061224	       15.0000000000	       -0.0000000000	
        0.7677551020	       25.3265306122	       15.0000000000	        0.0000000000	
        0.7879591837	       26.3877551020	       15.0000000000	        0.0000000000	
        0.8081632653	       27.4489795918	       15.0000000000	        0.0000000000	
        0.8283673469	       28.5102040816	       15.0000000000	        0.0000000000	
        0.8485714286	       29.5714285714	       15.0000000000	       -0.0000000000	
        0.8687755102	       30.6326530612	       15.0000000000	       -0.0000000000	
        0.8889795918	       31.6938775510	       15.0000000000	       -0.0000000000	
        0.9091836735	       32.7551020408	       15.0000000000	       -0.0000000000	
        0.9293877551	       33.8163265306	       15.0000000000	        0.0000000000	
        0.9495918367	       34.8775510204	       15.0000000000	        0.0000000000	
        0.9697959184	       35.9387755102	       15.0000000000	        0.0000000000	
        0.9900000000	       37.0000000000	       15.0000000000	        0.0000000000	
        1.0000000000	      -15.0000000000	       60.0000000000	       -0.0000000000	
        1.0202040816	      -13.9387755102	       60.0000000000	       -0.0000000000	
        1.0404081633	      -12.8775510204	       60.0000000000	       -0.0000000000	
        1.0606122449	      -11.8163265306	       60.0000000000	       -0.0000000000	
        1.0808163265	      -10.7551020408	       60.0000000000	       -0.0000000000	
        1.1010204082	       -9.6938775510	       60.0000000000	       -0.0000000000	
        1.1212244898	       -8.6326530612	       60.0000000000	       -0.0000000000	
        1.1414285714	       -7.5714285714	       60.0000000000	       -0.0000000000	
        1.1616326531	       -6.5102040816	       60.0000000000	        0.0000000000	
        1.1818367347	       -5.4489795918	       60.0000000000	        0.0000000000	
        1.2020408163	       -4.3877551020	       60.0000000000	        0.0000000000	
        1.2222448980	       -3.3265306122	       60.0000000000	        0.0000000000	
        1.2424489796	       -2.2653061224	       60.0000000000	        0.0000000000	
        1.2626530612	       -1.2040816327	       60.0000000000	        0.0000000000	
        1.2828571429	       -0.1428571429	       60.0000000000	        0.0000000000	
        1.3030612245	        0.9183673469	       60.0000000000	        0.0000000000	
        1.3232653061	        1.9795918367	       60.0000000000	        0.0000000000	
        1.3434693878	        3.0408163265	       60.0000000000	       -0.0000000000	
        1.3636734694	        4.1020408163	       60.0000000000	       -0.0000000000	
        1.3838775510	        5.1632653061	       60.0000000000	       -0.0000000000	
        1.4040816327	        6.2244897959	       60.0000000000	       -0.0000000000	
        1.4242857143	        7.2857142857	       60.0000000000	       -0.0000000000	
        1.4444897959	        8.3469387755	       60.0000000000	       -0.0000000000	
        1.4646938776	        9.4081632653	       60.0000000000	        0.0000000000	
        1.4848979592	       10.4693877551	       60.0000000000	        0.0000000000	
        1.5051020408	       11.5306122449	       60.0000000000	        0.0000000000	
        1.5253061224	       12.5918367347	       60.0000000000	        0.0000000000	
        1.5455102041	       13.6530612245	       60.0000000000	        0.0000000000	
        1.5657142857	       14.7142857143	       60.0000000000	        0.0000000000	
        1.5859183673	       15.7755102041	       60.0000000000	        0.0000000000	
        1.6061224490	       16.8367346939	       60.0000000000	        0.0000000000	
        1.6263265306	       17.8979591837	       60.0000000000	       -0.0000000000	
        1.6465306122	       18.9591836735	       60.0000000000	       -0.0000000000	
        1.6667346939	       20.0204081633	       60.0000000000	       -0.0000000000	
        1.6869387755	       21.0816326531	       60.0000000000	        0.0000000000	
        1.7071428571	       22.1428571429	       60.0000000000	        0.0000000000	
        1.7273469388	       23.2040816327	       60.0000000000	        0.0000000000	
        1.7475510204	       24.2653061224	       60.0000000000	        0.0000000000	
        1.7677551020	       25.3265306122	       60.0000000000	       -0.0000000000	
        1.7879591837	       26.3877551020	       60.0000000000	       -0.0000000000	
        1.8081632653	       27.4489795918	       60.0000000000	       -0.0000000000	
        1.8283673469	       28.5102040816	       60.0000000000	       -0.0000000000	
        1.8485714286	       29.5714285714	       60.0000000000	        0.0000000000	
        1.8687755102	       30.6326530612	       60.0000000000	        0.0000000000	
        1.8889795918	       31.6938775510	       60.0000000000	        0.0000000000	
        1.9091836735	       32.7551020408	       60.0000000000	        0.0000000000	
        1.9293877551	       33.8163265306	       60.0000000000	        0.0000000000	
        1.9495918367	       34.8775510204	       60.0000000000	        0.0000000000	
        1.9697959184	       35.9387755102	       60.0000000000	        0.0000000000	
        1.9900000000	       37.0000000000	       60.0000000000	        0.0000000000	
